<mxfile host="www.draw.io" modified="2019-11-07T03:09:03.221Z" agent="Mozilla/5.0 (Windows NT 10.0; Win64; x64) AppleWebKit/537.36 (KHTML, like Gecko) Chrome/78.0.3904.87 Safari/537.36" etag="ewNruzQjVbpWocr3bm6A" version="12.2.2" type="github" pages="1">
  <diagram id="GR0XHk3980qtKAkvEX1-" name="Page-1">
    <mxGraphModel dx="813" dy="416" grid="1" gridSize="10" guides="1" tooltips="1" connect="1" arrows="1" fold="1" page="1" pageScale="1" pageWidth="827" pageHeight="1169" math="0" shadow="0">
      <root>
        <mxCell id="0"/>
        <mxCell id="1" parent="0"/>
        <mxCell id="BZmTRLVMyl44DaW0drzN-1" value="Banshee&lt;br&gt;&amp;nbsp;Representative" style="shape=umlActor;verticalLabelPosition=bottom;labelBackgroundColor=#ffffff;verticalAlign=top;html=1;outlineConnect=0;" vertex="1" parent="1">
          <mxGeometry x="110" y="340" width="30" height="70" as="geometry"/>
        </mxCell>
        <mxCell id="BZmTRLVMyl44DaW0drzN-3" value="" style="whiteSpace=wrap;html=1;aspect=fixed;" vertex="1" parent="1">
          <mxGeometry x="250" y="190" width="380" height="380" as="geometry"/>
        </mxCell>
        <mxCell id="BZmTRLVMyl44DaW0drzN-4" value="Info Clients" style="text;html=1;strokeColor=none;fillColor=none;align=center;verticalAlign=middle;whiteSpace=wrap;rounded=0;" vertex="1" parent="1">
          <mxGeometry x="260" y="200" width="70" height="20" as="geometry"/>
        </mxCell>
        <mxCell id="BZmTRLVMyl44DaW0drzN-16" value="" style="group" vertex="1" connectable="0" parent="1">
          <mxGeometry x="282.5" y="320" width="95" height="60" as="geometry"/>
        </mxCell>
        <mxCell id="BZmTRLVMyl44DaW0drzN-14" value="" style="ellipse;whiteSpace=wrap;html=1;" vertex="1" parent="BZmTRLVMyl44DaW0drzN-16">
          <mxGeometry width="95" height="60" as="geometry"/>
        </mxCell>
        <mxCell id="BZmTRLVMyl44DaW0drzN-15" value="Update Customer" style="text;html=1;strokeColor=none;fillColor=none;align=center;verticalAlign=middle;whiteSpace=wrap;rounded=0;" vertex="1" parent="BZmTRLVMyl44DaW0drzN-16">
          <mxGeometry x="2" y="18" width="90" height="20" as="geometry"/>
        </mxCell>
        <mxCell id="BZmTRLVMyl44DaW0drzN-17" value="" style="group" vertex="1" connectable="0" parent="1">
          <mxGeometry x="282.5" y="400" width="95" height="60" as="geometry"/>
        </mxCell>
        <mxCell id="BZmTRLVMyl44DaW0drzN-18" value="" style="ellipse;whiteSpace=wrap;html=1;" vertex="1" parent="BZmTRLVMyl44DaW0drzN-17">
          <mxGeometry width="95" height="60" as="geometry"/>
        </mxCell>
        <mxCell id="BZmTRLVMyl44DaW0drzN-19" value="Delete Customer" style="text;html=1;strokeColor=none;fillColor=none;align=center;verticalAlign=middle;whiteSpace=wrap;rounded=0;" vertex="1" parent="BZmTRLVMyl44DaW0drzN-17">
          <mxGeometry x="2" y="19" width="90" height="20" as="geometry"/>
        </mxCell>
        <mxCell id="BZmTRLVMyl44DaW0drzN-20" value="" style="group" vertex="1" connectable="0" parent="1">
          <mxGeometry x="282.5" y="240" width="95" height="60" as="geometry"/>
        </mxCell>
        <mxCell id="BZmTRLVMyl44DaW0drzN-21" value="" style="ellipse;whiteSpace=wrap;html=1;" vertex="1" parent="BZmTRLVMyl44DaW0drzN-20">
          <mxGeometry width="95" height="60" as="geometry"/>
        </mxCell>
        <mxCell id="BZmTRLVMyl44DaW0drzN-22" value="Create Customer" style="text;html=1;strokeColor=none;fillColor=none;align=center;verticalAlign=middle;whiteSpace=wrap;rounded=0;" vertex="1" parent="BZmTRLVMyl44DaW0drzN-20">
          <mxGeometry x="2" y="19" width="90" height="20" as="geometry"/>
        </mxCell>
        <mxCell id="BZmTRLVMyl44DaW0drzN-23" value="" style="group" vertex="1" connectable="0" parent="1">
          <mxGeometry x="282.5" y="480" width="95" height="60" as="geometry"/>
        </mxCell>
        <mxCell id="BZmTRLVMyl44DaW0drzN-24" value="" style="ellipse;whiteSpace=wrap;html=1;" vertex="1" parent="BZmTRLVMyl44DaW0drzN-23">
          <mxGeometry width="95" height="60" as="geometry"/>
        </mxCell>
        <mxCell id="BZmTRLVMyl44DaW0drzN-25" value="Read Customer" style="text;html=1;strokeColor=none;fillColor=none;align=center;verticalAlign=middle;whiteSpace=wrap;rounded=0;" vertex="1" parent="BZmTRLVMyl44DaW0drzN-23">
          <mxGeometry x="2" y="20" width="90" height="20" as="geometry"/>
        </mxCell>
        <mxCell id="BZmTRLVMyl44DaW0drzN-26" value="" style="group" vertex="1" connectable="0" parent="1">
          <mxGeometry x="480" y="240" width="95" height="60" as="geometry"/>
        </mxCell>
        <mxCell id="BZmTRLVMyl44DaW0drzN-27" value="" style="ellipse;whiteSpace=wrap;html=1;" vertex="1" parent="BZmTRLVMyl44DaW0drzN-26">
          <mxGeometry width="95" height="60" as="geometry"/>
        </mxCell>
        <mxCell id="BZmTRLVMyl44DaW0drzN-28" value="Create Visit" style="text;html=1;strokeColor=none;fillColor=none;align=center;verticalAlign=middle;whiteSpace=wrap;rounded=0;" vertex="1" parent="BZmTRLVMyl44DaW0drzN-26">
          <mxGeometry x="2" y="18" width="90" height="20" as="geometry"/>
        </mxCell>
        <mxCell id="BZmTRLVMyl44DaW0drzN-29" value="" style="group" vertex="1" connectable="0" parent="1">
          <mxGeometry x="480" y="320" width="95" height="60" as="geometry"/>
        </mxCell>
        <mxCell id="BZmTRLVMyl44DaW0drzN-30" value="" style="ellipse;whiteSpace=wrap;html=1;" vertex="1" parent="BZmTRLVMyl44DaW0drzN-29">
          <mxGeometry width="95" height="60" as="geometry"/>
        </mxCell>
        <mxCell id="BZmTRLVMyl44DaW0drzN-31" value="Read Visit" style="text;html=1;strokeColor=none;fillColor=none;align=center;verticalAlign=middle;whiteSpace=wrap;rounded=0;" vertex="1" parent="BZmTRLVMyl44DaW0drzN-29">
          <mxGeometry x="2" y="18" width="90" height="20" as="geometry"/>
        </mxCell>
        <mxCell id="BZmTRLVMyl44DaW0drzN-32" value="" style="group" vertex="1" connectable="0" parent="1">
          <mxGeometry x="480" y="400" width="95" height="60" as="geometry"/>
        </mxCell>
        <mxCell id="BZmTRLVMyl44DaW0drzN-33" value="" style="ellipse;whiteSpace=wrap;html=1;" vertex="1" parent="BZmTRLVMyl44DaW0drzN-32">
          <mxGeometry width="95" height="60" as="geometry"/>
        </mxCell>
        <mxCell id="BZmTRLVMyl44DaW0drzN-34" value="Update Visit" style="text;html=1;strokeColor=none;fillColor=none;align=center;verticalAlign=middle;whiteSpace=wrap;rounded=0;" vertex="1" parent="BZmTRLVMyl44DaW0drzN-32">
          <mxGeometry x="2" y="18" width="90" height="20" as="geometry"/>
        </mxCell>
        <mxCell id="BZmTRLVMyl44DaW0drzN-35" value="" style="group" vertex="1" connectable="0" parent="1">
          <mxGeometry x="480" y="480" width="95" height="60" as="geometry"/>
        </mxCell>
        <mxCell id="BZmTRLVMyl44DaW0drzN-36" value="" style="ellipse;whiteSpace=wrap;html=1;" vertex="1" parent="BZmTRLVMyl44DaW0drzN-35">
          <mxGeometry width="95" height="60" as="geometry"/>
        </mxCell>
        <mxCell id="BZmTRLVMyl44DaW0drzN-37" value="Delete Visit" style="text;html=1;strokeColor=none;fillColor=none;align=center;verticalAlign=middle;whiteSpace=wrap;rounded=0;" vertex="1" parent="BZmTRLVMyl44DaW0drzN-35">
          <mxGeometry x="2" y="18" width="90" height="20" as="geometry"/>
        </mxCell>
        <mxCell id="BZmTRLVMyl44DaW0drzN-38" value="" style="endArrow=none;html=1;entryX=0;entryY=0.5;entryDx=0;entryDy=0;" edge="1" parent="1" target="BZmTRLVMyl44DaW0drzN-25">
          <mxGeometry width="50" height="50" relative="1" as="geometry">
            <mxPoint x="140" y="380" as="sourcePoint"/>
            <mxPoint x="110" y="590" as="targetPoint"/>
          </mxGeometry>
        </mxCell>
        <mxCell id="BZmTRLVMyl44DaW0drzN-39" value="" style="endArrow=none;html=1;entryX=0;entryY=0.5;entryDx=0;entryDy=0;" edge="1" parent="1" target="BZmTRLVMyl44DaW0drzN-19">
          <mxGeometry width="50" height="50" relative="1" as="geometry">
            <mxPoint x="140" y="380" as="sourcePoint"/>
            <mxPoint x="130" y="590" as="targetPoint"/>
          </mxGeometry>
        </mxCell>
        <mxCell id="BZmTRLVMyl44DaW0drzN-40" value="" style="endArrow=none;html=1;entryX=0;entryY=0.5;entryDx=0;entryDy=0;" edge="1" parent="1" target="BZmTRLVMyl44DaW0drzN-15">
          <mxGeometry width="50" height="50" relative="1" as="geometry">
            <mxPoint x="140" y="380" as="sourcePoint"/>
            <mxPoint x="210" y="290" as="targetPoint"/>
          </mxGeometry>
        </mxCell>
        <mxCell id="BZmTRLVMyl44DaW0drzN-41" value="" style="endArrow=none;html=1;entryX=0;entryY=0.5;entryDx=0;entryDy=0;" edge="1" parent="1" target="BZmTRLVMyl44DaW0drzN-22">
          <mxGeometry width="50" height="50" relative="1" as="geometry">
            <mxPoint x="140" y="380" as="sourcePoint"/>
            <mxPoint x="100" y="245" as="targetPoint"/>
          </mxGeometry>
        </mxCell>
        <mxCell id="BZmTRLVMyl44DaW0drzN-43" value="Use" style="endArrow=open;endSize=12;dashed=1;html=1;entryX=1.018;entryY=1.086;entryDx=0;entryDy=0;exitX=0;exitY=0.75;exitDx=0;exitDy=0;fontColor=#FFFFFF;entryPerimeter=0;" edge="1" parent="1" source="BZmTRLVMyl44DaW0drzN-34" target="BZmTRLVMyl44DaW0drzN-15">
          <mxGeometry width="160" relative="1" as="geometry">
            <mxPoint x="190" y="510" as="sourcePoint"/>
            <mxPoint x="240" y="590" as="targetPoint"/>
          </mxGeometry>
        </mxCell>
        <mxCell id="BZmTRLVMyl44DaW0drzN-45" value="return" style="html=1;verticalAlign=bottom;endArrow=open;dashed=1;endSize=8;fontColor=#FFFFFF;entryX=1;entryY=0.75;entryDx=0;entryDy=0;exitX=0;exitY=0.75;exitDx=0;exitDy=0;" edge="1" parent="1" source="BZmTRLVMyl44DaW0drzN-31" target="BZmTRLVMyl44DaW0drzN-15">
          <mxGeometry relative="1" as="geometry">
            <mxPoint x="150" y="610" as="sourcePoint"/>
            <mxPoint x="70" y="610" as="targetPoint"/>
          </mxGeometry>
        </mxCell>
        <mxCell id="BZmTRLVMyl44DaW0drzN-46" value="return" style="html=1;verticalAlign=bottom;endArrow=open;dashed=1;endSize=8;fontColor=#FFFFFF;entryX=1;entryY=0.25;entryDx=0;entryDy=0;exitX=0;exitY=0.75;exitDx=0;exitDy=0;" edge="1" parent="1" source="BZmTRLVMyl44DaW0drzN-28" target="BZmTRLVMyl44DaW0drzN-15">
          <mxGeometry relative="1" as="geometry">
            <mxPoint x="492" y="363" as="sourcePoint"/>
            <mxPoint x="384.5" y="363" as="targetPoint"/>
          </mxGeometry>
        </mxCell>
        <mxCell id="BZmTRLVMyl44DaW0drzN-47" value="return" style="html=1;verticalAlign=bottom;endArrow=open;dashed=1;endSize=8;fontColor=#FFFFFF;entryX=0.895;entryY=0.805;entryDx=0;entryDy=0;exitX=0;exitY=0.25;exitDx=0;exitDy=0;entryPerimeter=0;" edge="1" parent="1" source="BZmTRLVMyl44DaW0drzN-37" target="BZmTRLVMyl44DaW0drzN-14">
          <mxGeometry relative="1" as="geometry">
            <mxPoint x="502" y="373" as="sourcePoint"/>
            <mxPoint x="394.5" y="373" as="targetPoint"/>
          </mxGeometry>
        </mxCell>
        <mxCell id="BZmTRLVMyl44DaW0drzN-49" value="&amp;lt;&amp;lt; extends &amp;gt;&amp;gt;" style="text;html=1;strokeColor=none;fillColor=none;align=center;verticalAlign=middle;whiteSpace=wrap;rounded=0;fontColor=#000000;fontSize=8;" vertex="1" parent="1">
          <mxGeometry x="392" y="423" width="60" height="10" as="geometry"/>
        </mxCell>
        <mxCell id="BZmTRLVMyl44DaW0drzN-50" value="return" style="html=1;verticalAlign=bottom;endArrow=open;dashed=1;endSize=8;fontColor=#FFFFFF;entryX=0;entryY=0.75;entryDx=0;entryDy=0;exitX=1;exitY=0.5;exitDx=0;exitDy=0;" edge="1" parent="1" source="BZmTRLVMyl44DaW0drzN-18" target="BZmTRLVMyl44DaW0drzN-37">
          <mxGeometry relative="1" as="geometry">
            <mxPoint x="522" y="393" as="sourcePoint"/>
            <mxPoint x="414.5" y="393" as="targetPoint"/>
          </mxGeometry>
        </mxCell>
        <mxCell id="BZmTRLVMyl44DaW0drzN-52" value="&amp;lt;&amp;lt; extends &amp;gt;&amp;gt;" style="text;html=1;strokeColor=none;fillColor=none;align=center;verticalAlign=middle;whiteSpace=wrap;rounded=0;fontColor=#000000;fontSize=8;" vertex="1" parent="1">
          <mxGeometry x="404" y="391" width="60" height="10" as="geometry"/>
        </mxCell>
        <mxCell id="BZmTRLVMyl44DaW0drzN-53" value="&amp;lt;&amp;lt; extends &amp;gt;&amp;gt;" style="text;html=1;strokeColor=none;fillColor=none;align=center;verticalAlign=middle;whiteSpace=wrap;rounded=0;fontColor=#000000;fontSize=8;" vertex="1" parent="1">
          <mxGeometry x="407" y="341" width="60" height="10" as="geometry"/>
        </mxCell>
        <mxCell id="BZmTRLVMyl44DaW0drzN-54" value="&amp;lt;&amp;lt; extends &amp;gt;&amp;gt;" style="text;html=1;strokeColor=none;fillColor=none;align=center;verticalAlign=middle;whiteSpace=wrap;rounded=0;fontColor=#000000;fontSize=8;" vertex="1" parent="1">
          <mxGeometry x="411" y="296" width="60" height="10" as="geometry"/>
        </mxCell>
        <mxCell id="BZmTRLVMyl44DaW0drzN-55" value="&amp;lt;&amp;lt; include &amp;gt;&amp;gt;" style="text;html=1;strokeColor=none;fillColor=none;align=center;verticalAlign=middle;whiteSpace=wrap;rounded=0;fontColor=#000000;fontSize=8;" vertex="1" parent="1">
          <mxGeometry x="390" y="459" width="60" height="10" as="geometry"/>
        </mxCell>
      </root>
    </mxGraphModel>
  </diagram>
</mxfile>
